<svg width="236" height="236" viewBox="0 0 236 236" fill="none" xmlns="http://www.w3.org/2000/svg">
<ellipse cx="75.6822" cy="34.0816" rx="16.446" ry="15.5804" fill="#4477B3"/>
<path d="M35.7009 101.712C32.3341 107.387 41.9856 113.971 45.8014 108.75C49.6171 103.528 57.6974 88.0896 57.6974 88.0896V172.092C57.6974 181.854 72.5114 182.081 72.5114 172.092V130.318H78.3472V172.092C78.3472 181.627 93.6101 181.4 93.6101 172.092V88.0896C93.6101 88.0896 101.242 102.62 105.057 108.75C108.873 114.879 119.647 108.75 115.382 101.712C111.118 94.6735 111.791 94.6735 100.119 74.6946C88.4477 54.7158 61.7376 55.6239 50.7394 74.6946C39.7411 93.7654 39.0678 96.0357 35.7009 101.712Z" fill="#4477B3"/>
<path d="M151.923 30.8146L151.621 167.109C151.617 169.209 152.433 171.19 153.923 172.687C155.414 174.184 157.39 175.008 159.493 175.016L179.617 175.06C180.653 175.064 181.68 174.863 182.638 174.468C183.596 174.073 184.466 173.492 185.198 172.758C186.696 171.266 187.52 169.29 187.523 167.188L187.831 30.8939C187.835 28.7939 187.017 26.8113 185.527 25.3142C184.037 23.8171 182.058 22.9906 179.959 22.9875L159.826 22.943C157.735 22.9417 155.729 23.7696 154.247 25.2451C152.766 26.7207 151.93 28.7236 151.923 30.8146ZM159.821 26.7706L179.951 26.8151C182.104 26.8198 184.009 28.7334 184.004 30.8869L183.696 167.183C183.693 168.258 183.268 169.276 182.496 170.044C181.725 170.813 180.705 171.236 179.625 171.232L159.504 171.188C158.425 171.184 157.405 170.757 156.637 169.986C155.869 169.214 155.445 168.194 155.449 167.118L155.451 166.349L175.994 166.397L176.007 162.052L155.462 162.005L155.473 157.654L164.786 157.673L164.797 153.329L155.482 153.312L155.491 148.961L164.808 148.982L164.817 144.636L155.5 144.615L155.51 140.269L164.827 140.287L164.835 135.94L155.521 135.919L155.529 131.572L176.077 131.619L176.084 127.267L155.539 127.226L155.548 122.877L164.866 122.898L164.874 118.55L155.559 118.53L155.568 114.179L164.885 114.203L164.894 109.857L155.577 109.836L155.588 105.486L164.904 105.508L164.912 101.161L155.598 101.14L155.606 96.7959L176.151 96.8368L176.161 92.488L155.616 92.4441L155.625 88.0982L164.942 88.1188L164.951 83.7714L155.636 83.7509L155.644 79.4005L164.962 79.4241L164.968 75.0752L155.656 75.0532L155.665 70.7073L164.981 70.7294L164.989 66.382L155.675 66.3615L155.683 62.0141L176.228 62.058L176.238 57.7091L155.693 57.6682L155.702 53.3194L165.019 53.34L165.031 48.9896L155.712 48.9705L155.721 44.6217L165.039 44.6453L165.048 40.2994L155.731 40.2788L155.742 35.9285L165.058 35.9505L165.064 31.6017L155.75 31.5811L155.752 30.8186C155.756 29.7428 156.187 28.7126 156.95 27.9539C157.713 27.1951 158.745 26.7696 159.821 26.7706Z" fill="#010101"/>
<path d="M43.2854 205.344V225H38.4974V216.908H31.0494V225H26.2614V205.344H31.0494V213.044H38.4974V205.344H43.2854ZM61.4699 216.936C61.4699 217.384 61.4419 217.851 61.3859 218.336H50.5499C50.6245 219.307 50.9325 220.053 51.4739 220.576C52.0339 221.08 52.7152 221.332 53.5179 221.332C54.7125 221.332 55.5432 220.828 56.0099 219.82H61.1059C60.8445 220.847 60.3685 221.771 59.6779 222.592C59.0059 223.413 58.1565 224.057 57.1299 224.524C56.1032 224.991 54.9552 225.224 53.6859 225.224C52.1552 225.224 50.7925 224.897 49.5979 224.244C48.4032 223.591 47.4699 222.657 46.7979 221.444C46.1259 220.231 45.7899 218.812 45.7899 217.188C45.7899 215.564 46.1165 214.145 46.7699 212.932C47.4419 211.719 48.3752 210.785 49.5699 210.132C50.7645 209.479 52.1365 209.152 53.6859 209.152C55.1979 209.152 56.5419 209.469 57.7179 210.104C58.8939 210.739 59.8085 211.644 60.4619 212.82C61.1339 213.996 61.4699 215.368 61.4699 216.936ZM56.5699 215.676C56.5699 214.855 56.2899 214.201 55.7299 213.716C55.1699 213.231 54.4699 212.988 53.6299 212.988C52.8272 212.988 52.1459 213.221 51.5859 213.688C51.0445 214.155 50.7085 214.817 50.5779 215.676H56.5699ZM66.4038 207.752C65.5638 207.752 64.8731 207.509 64.3318 207.024C63.8091 206.52 63.5478 205.904 63.5478 205.176C63.5478 204.429 63.8091 203.813 64.3318 203.328C64.8731 202.824 65.5638 202.572 66.4038 202.572C67.2251 202.572 67.8971 202.824 68.4198 203.328C68.9611 203.813 69.2318 204.429 69.2318 205.176C69.2318 205.904 68.9611 206.52 68.4198 207.024C67.8971 207.509 67.2251 207.752 66.4038 207.752ZM68.7838 209.376V225H63.9958V209.376H68.7838ZM78.1896 209.152C79.2909 209.152 80.2522 209.376 81.0736 209.824C81.9136 210.272 82.5576 210.86 83.0056 211.588V209.376H87.7936V224.972C87.7936 226.409 87.5042 227.707 86.9256 228.864C86.3656 230.04 85.4976 230.973 84.3216 231.664C83.1642 232.355 81.7176 232.7 79.9816 232.7C77.6669 232.7 75.7909 232.149 74.3536 231.048C72.9162 229.965 72.0949 228.491 71.8896 226.624H76.6216C76.7709 227.221 77.1256 227.688 77.6856 228.024C78.2456 228.379 78.9362 228.556 79.7576 228.556C80.7469 228.556 81.5309 228.267 82.1096 227.688C82.7069 227.128 83.0056 226.223 83.0056 224.972V222.76C82.5389 223.488 81.8949 224.085 81.0736 224.552C80.2522 225 79.2909 225.224 78.1896 225.224C76.9016 225.224 75.7349 224.897 74.6896 224.244C73.6442 223.572 72.8136 222.629 72.1976 221.416C71.6002 220.184 71.3016 218.765 71.3016 217.16C71.3016 215.555 71.6002 214.145 72.1976 212.932C72.8136 211.719 73.6442 210.785 74.6896 210.132C75.7349 209.479 76.9016 209.152 78.1896 209.152ZM83.0056 217.188C83.0056 215.993 82.6696 215.051 81.9976 214.36C81.3442 213.669 80.5416 213.324 79.5896 213.324C78.6376 213.324 77.8256 213.669 77.1536 214.36C76.5002 215.032 76.1736 215.965 76.1736 217.16C76.1736 218.355 76.5002 219.307 77.1536 220.016C77.8256 220.707 78.6376 221.052 79.5896 221.052C80.5416 221.052 81.3442 220.707 81.9976 220.016C82.6696 219.325 83.0056 218.383 83.0056 217.188ZM100.861 209.208C102.653 209.208 104.091 209.805 105.173 211C106.256 212.176 106.797 213.8 106.797 215.872V225H102.037V216.516C102.037 215.471 101.767 214.659 101.225 214.08C100.684 213.501 99.9562 213.212 99.0415 213.212C98.1268 213.212 97.3988 213.501 96.8575 214.08C96.3162 214.659 96.0455 215.471 96.0455 216.516V225H91.2575V204.28H96.0455V211.476C96.5308 210.785 97.1935 210.235 98.0335 209.824C98.8735 209.413 99.8162 209.208 100.861 209.208ZM118.833 220.94V225H116.397C114.661 225 113.307 224.58 112.337 223.74C111.366 222.881 110.881 221.491 110.881 219.568V213.352H108.977V209.376H110.881V205.568H115.669V209.376H118.805V213.352H115.669V219.624C115.669 220.091 115.781 220.427 116.005 220.632C116.229 220.837 116.602 220.94 117.125 220.94H118.833ZM120.688 215.144C120.688 213.203 121.108 211.476 121.948 209.964C122.788 208.433 123.954 207.248 125.448 206.408C126.96 205.549 128.668 205.12 130.572 205.12C132.905 205.12 134.902 205.736 136.564 206.968C138.225 208.2 139.336 209.88 139.896 212.008H134.632C134.24 211.187 133.68 210.561 132.952 210.132C132.242 209.703 131.43 209.488 130.516 209.488C129.041 209.488 127.846 210.001 126.932 211.028C126.017 212.055 125.56 213.427 125.56 215.144C125.56 216.861 126.017 218.233 126.932 219.26C127.846 220.287 129.041 220.8 130.516 220.8C131.43 220.8 132.242 220.585 132.952 220.156C133.68 219.727 134.24 219.101 134.632 218.28H139.896C139.336 220.408 138.225 222.088 136.564 223.32C134.902 224.533 132.905 225.14 130.572 225.14C128.668 225.14 126.96 224.72 125.448 223.88C123.954 223.021 122.788 221.836 121.948 220.324C121.108 218.812 120.688 217.085 120.688 215.144ZM152.432 209.208C154.224 209.208 155.661 209.805 156.744 211C157.826 212.176 158.368 213.8 158.368 215.872V225H153.608V216.516C153.608 215.471 153.337 214.659 152.796 214.08C152.254 213.501 151.526 213.212 150.612 213.212C149.697 213.212 148.969 213.501 148.428 214.08C147.886 214.659 147.616 215.471 147.616 216.516V225H142.828V204.28H147.616V211.476C148.101 210.785 148.764 210.235 149.604 209.824C150.444 209.413 151.386 209.208 152.432 209.208ZM176.423 216.936C176.423 217.384 176.395 217.851 176.339 218.336H165.503C165.578 219.307 165.886 220.053 166.427 220.576C166.987 221.08 167.668 221.332 168.471 221.332C169.666 221.332 170.496 220.828 170.963 219.82H176.059C175.798 220.847 175.322 221.771 174.631 222.592C173.959 223.413 173.11 224.057 172.083 224.524C171.056 224.991 169.908 225.224 168.639 225.224C167.108 225.224 165.746 224.897 164.551 224.244C163.356 223.591 162.423 222.657 161.751 221.444C161.079 220.231 160.743 218.812 160.743 217.188C160.743 215.564 161.07 214.145 161.723 212.932C162.395 211.719 163.328 210.785 164.523 210.132C165.718 209.479 167.09 209.152 168.639 209.152C170.151 209.152 171.495 209.469 172.671 210.104C173.847 210.739 174.762 211.644 175.415 212.82C176.087 213.996 176.423 215.368 176.423 216.936ZM171.523 215.676C171.523 214.855 171.243 214.201 170.683 213.716C170.123 213.231 169.423 212.988 168.583 212.988C167.78 212.988 167.099 213.221 166.539 213.688C165.998 214.155 165.662 214.817 165.531 215.676H171.523ZM177.997 217.188C177.997 215.564 178.324 214.145 178.977 212.932C179.649 211.719 180.573 210.785 181.749 210.132C182.944 209.479 184.306 209.152 185.837 209.152C187.797 209.152 189.43 209.665 190.737 210.692C192.062 211.719 192.93 213.165 193.341 215.032H188.245C187.816 213.837 186.985 213.24 185.753 213.24C184.876 213.24 184.176 213.585 183.653 214.276C183.13 214.948 182.869 215.919 182.869 217.188C182.869 218.457 183.13 219.437 183.653 220.128C184.176 220.8 184.876 221.136 185.753 221.136C186.985 221.136 187.816 220.539 188.245 219.344H193.341C192.93 221.173 192.062 222.611 190.737 223.656C189.412 224.701 187.778 225.224 185.837 225.224C184.306 225.224 182.944 224.897 181.749 224.244C180.573 223.591 179.649 222.657 178.977 221.444C178.324 220.231 177.997 218.812 177.997 217.188ZM205.45 225L200.69 218.448V225H195.902V204.28H200.69V215.732L205.422 209.376H211.33L204.834 217.216L211.386 225H205.45Z" fill="black"/>
</svg>
