<svg width="198" height="198" viewBox="0 0 198 198" fill="none" xmlns="http://www.w3.org/2000/svg">
<ellipse cx="56.6822" cy="34.0816" rx="16.446" ry="15.5804" fill="#4477B3"/>
<path d="M16.7009 101.712C13.3341 107.387 22.9856 113.971 26.8014 108.75C30.6171 103.528 38.6974 88.0896 38.6974 88.0896V172.092C38.6974 181.854 53.5114 182.081 53.5114 172.092V130.318H59.3472V172.092C59.3472 181.627 74.6101 181.4 74.6101 172.092V88.0896C74.6101 88.0896 82.2415 102.62 86.0573 108.75C89.873 114.879 100.647 108.75 96.3822 101.712C92.1175 94.6735 92.7909 94.6735 81.1193 74.6946C69.4477 54.7158 42.7376 55.6239 31.7394 74.6946C20.7411 93.7654 20.0678 96.0357 16.7009 101.712Z" fill="#4477B3"/>
<path d="M132.923 30.8146L132.621 167.109C132.617 169.209 133.433 171.19 134.923 172.687C136.414 174.184 138.39 175.008 140.493 175.016L160.617 175.06C161.653 175.064 162.68 174.863 163.638 174.468C164.596 174.073 165.466 173.492 166.198 172.758C167.696 171.266 168.52 169.29 168.523 167.188L168.831 30.8939C168.835 28.7939 168.017 26.8113 166.527 25.3142C165.037 23.8171 163.058 22.9906 160.959 22.9875L140.826 22.943C138.735 22.9417 136.729 23.7696 135.247 25.2451C133.766 26.7207 132.93 28.7236 132.923 30.8146ZM140.821 26.7706L160.951 26.8151C163.104 26.8198 165.009 28.7334 165.004 30.8869L164.696 167.183C164.693 168.258 164.268 169.276 163.496 170.044C162.725 170.813 161.705 171.236 160.625 171.232L140.504 171.188C139.425 171.184 138.405 170.757 137.637 169.986C136.869 169.214 136.445 168.194 136.449 167.118L136.451 166.349L156.994 166.397L157.007 162.052L136.462 162.005L136.473 157.654L145.786 157.673L145.797 153.329L136.482 153.312L136.491 148.961L145.808 148.982L145.817 144.636L136.5 144.615L136.51 140.269L145.827 140.287L145.835 135.94L136.521 135.919L136.529 131.572L157.077 131.619L157.084 127.267L136.539 127.226L136.548 122.877L145.866 122.898L145.874 118.55L136.559 118.53L136.568 114.179L145.885 114.203L145.894 109.857L136.577 109.836L136.588 105.486L145.904 105.508L145.912 101.161L136.598 101.14L136.606 96.7959L157.151 96.8368L157.161 92.488L136.616 92.4441L136.625 88.0982L145.942 88.1188L145.951 83.7714L136.636 83.7509L136.644 79.4005L145.962 79.4241L145.968 75.0752L136.656 75.0532L136.665 70.7073L145.981 70.7294L145.989 66.382L136.675 66.3615L136.683 62.0141L157.228 62.058L157.238 57.7091L136.693 57.6682L136.702 53.3194L146.019 53.34L146.031 48.9896L136.712 48.9705L136.721 44.6217L146.039 44.6453L146.048 40.2994L136.731 40.2788L136.742 35.9285L146.058 35.9505L146.064 31.6017L136.75 31.5811L136.752 30.8186C136.756 29.7428 137.187 28.7126 137.95 27.9539C138.713 27.1951 139.745 26.7696 140.821 26.7706Z" fill="#010101"/>
</svg>
